<?xml version="1.0" encoding="utf-8"?>
<!-- Generator: Adobe Illustrator 21.1.0, SVG Export Plug-In . SVG Version: 6.00 Build 0)  -->
<svg version="1.1" id="Livello_1" xmlns="http://www.w3.org/2000/svg" xmlns:xlink="http://www.w3.org/1999/xlink" x="0px" y="0px"
	 viewBox="0 0 32 32" style="enable-background:new 0 0 32 32;" xml:space="preserve">
<style type="text/css">
	.st0{fill:#441E4B;}
	.st1{fill:#FFFFFF;stroke:#FFFFFF;stroke-width:1.5;stroke-linecap:round;stroke-miterlimit:10;}
</style>
<path class="st0" d="M28,32H4c-2.2,0-4-1.8-4-4V4c0-2.2,1.8-4,4-4h24c2.2,0,4,1.8,4,4v24C32,30.2,30.2,32,28,32z"/>
<g>
	<path class="st1" d="M16.3,12c0,0,1.3-0.3,2.3,1.3c0.9,1.3,0.1,2.5,0.1,2.5s-0.6,0.8-0.4,1.9s0.8,1.7,0.8,1.7s0.7,1,2.3,0.9
		c0,0,1.1-0.1,2.2,1.3c0.9,1.2,0.5,2,0.5,2s-0.3,0.3-0.4,0.9c0,0-0.5,1.8,1.2,2.6c1.5,0.7,2.6-0.4,2.6-0.4c1.3-1.4,0.4-2.8,0.4-2.8
		c-0.8-1.4-2.3-1.2-2.3-1.2s-0.7,0.1-1.6-1.4c-1-1.6-0.1-2.6-0.1-2.6c0.3-0.4,0.4-1.2,0.4-1.2s0.2-1.2-0.8-2.3s-2.3-1-2.3-1
		s-1.5,0-2.2-1.3c-0.8-1.6,0-2.6,0-2.6s2-3-1.3-5.2c0,0-2.8-1.5-4.8,1.3c0,0-1.6,2.3,0.6,4.6C13.5,11,14.5,12.1,16.3,12z"/>
	<path class="st1" d="M15.7,12c0,0-1.3-0.3-2.3,1.3c-0.9,1.3-0.1,2.5-0.1,2.5s0.6,0.8,0.4,1.9S13,19.2,13,19.2s-0.7,1-2.3,0.9
		c0,0-1.1-0.1-2.2,1.3c-0.9,1.2-0.5,2-0.5,2s0.3,0.3,0.4,0.9c0,0,0.5,1.8-1.2,2.6c-1.5,0.7-2.6-0.4-2.6-0.4
		c-1.3-1.4-0.4-2.8-0.4-2.8c0.8-1.4,2.3-1.2,2.3-1.2s0.7,0.1,1.6-1.4c1-1.6,0.1-2.6,0.1-2.6c-0.3-0.4-0.4-1.2-0.4-1.2
		S7.6,16.1,8.6,15s2.3-1,2.3-1s1.5,0,2.2-1.3c0.8-1.6,0-2.6,0-2.6s-2-3,1.3-5.2c0,0,2.8-1.5,4.8,1.3c0,0,1.6,2.3-0.6,4.6
		C18.5,11,17.5,12.1,15.7,12z"/>
</g>
</svg>
