<?xml version="1.0" encoding="utf-8"?>
<!-- Generator: Adobe Illustrator 21.1.0, SVG Export Plug-In . SVG Version: 6.00 Build 0)  -->
<svg version="1.1" id="Livello_1" xmlns="http://www.w3.org/2000/svg" xmlns:xlink="http://www.w3.org/1999/xlink" x="0px" y="0px"
	 viewBox="0 0 800 800" style="enable-background:new 0 0 800 800;" xml:space="preserve">
<style type="text/css">
	.st0{stroke:#FF0000;stroke-width:3;stroke-miterlimit:10;}
	.st1{fill:#FF0000;stroke:#FF0000;stroke-width:4;stroke-miterlimit:10;}
	.st2{fill:#D37F2A;}
	.st3{fill:#C1272D;stroke:#FF0000;stroke-miterlimit:10;}
	.st4{fill:#603813;stroke:#603813;stroke-miterlimit:10;}
	.st5{fill:#E07722;stroke:#E07722;stroke-miterlimit:10;}
	.st6{fill:#D37F2A;stroke:#D37F2A;stroke-miterlimit:10;}
	.st7{fill:#FFFFFF;stroke:#FFFFFF;stroke-miterlimit:10;}
</style>
<path class="st0" d="M418,783"/>
<path class="st1" d="M140,693"/>
<path class="st2" d="M138.5,568.3"/>
<g>
	<path class="st2" d="M602.9,652.2"/>
	<path class="st2" d="M211.5,652.2"/>
	<path class="st2" d="M687.2,568.3"/>
	<path class="st3" d="M253.1,697"/>
	<path class="st1" d="M669.1,693"/>
	<g>
		<path class="st4" d="M461.1,208.8c0,0,34.1-127.2,136.4-95.1s104.2,99.3,67.5,183.2"/>
		<path class="st0" d="M384.2,406.1"/>
		<g>
			<g>
				<path class="st4" d="M740.6,415.5c0,136.9-142.7,204.3-326.8,204.3s-340-67.4-340-204.3S223,167.6,407.2,167.6
					S740.6,278.6,740.6,415.5z"/>
				<path class="st4" d="M73.8,415.5c0,0,2.2,167.8,168.6,229.9c0,0,53.1,19.2,103.4,54c61.4,42.5,113.3,2.7,113.3,2.7"/>
				<path class="st4" d="M740.5,420.8c0,0-2.7,162.4-169.1,224.6c0,0-53.1,19.2-103.4,54c-61.4,42.5-113.3,2.7-113.3,2.7"/>
			</g>
			<polygon class="st4" points="306.5,611.1 407.2,686.8 506.4,609.7 			"/>
		</g>
		<g>
			<g>
				<path class="st5" d="M708.7,422.1c0,125.6-129,187.4-295.6,187.4s-307.5-61.8-307.5-187.4s135-227.4,301.5-227.4
					S708.7,296.5,708.7,422.1z"/>
				<path class="st5" d="M105.6,422.1c0,0,2,153.9,152.5,210.9c0,0,48.1,17.6,93.5,49.5c55.5,39,102.5,2.5,102.5,2.5"/>
				<path class="st5" d="M708.7,427c0,0-2.5,149-153,206c0,0-48.1,17.6-93.5,49.5c-55.5,39-102.5,2.5-102.5,2.5"/>
			</g>
			<polygon class="st5" points="316.1,601.5 407.2,671 496.9,600.2 			"/>
		</g>
		<path class="st4" d="M117.3,293"/>
		<path class="st4" d="M170,259.5c0,0-17.3-16-19-64.8c-1-28.2,19.2-28.7,57.1-35.4c35.3-6.2,57.4-0.5,65,22.6
			c6.6,20.2,13.5,35.7,18.1,45.2c3.2,6.5,10.2,10.2,17.4,9.1l1.3-0.2c8.2-1.3,14.3-8.4,14-16.7c-0.7-23.6-9.4-50.7-10.9-55.3
			c-0.1-0.4-0.3-0.9-0.5-1.3c-25.6-60.3-96.8-47.3-103.8-45.9c-0.4,0.1-0.7,0.1-1.1,0.2c-7.5,1-87.8,13.4-93.5,73.4
			c-5.9,63,31,94.6,31,94.6"/>
		<path class="st4" d="M159.2,249.8"/>
		<path class="st4" d="M279.9,261.6"/>
		<path class="st5" d="M295.6,254.2l-136.4-4.3c0,0-33.9-39.5-10.9-74.7s69.9-35.1,69.9-35.1s48.3-5.5,68.2,27.6
			C301.8,193.2,295.6,254.2,295.6,254.2z"/>
		<path class="st6" d="M159.2,249.8c0,0,9.7,17.7,19.7,23.7c10,6,39.3-28.8,39.3-28.8L159.2,249.8z"/>
		<path class="st5" d="M480.2,214.7c0,0,27.3-101.6,109-76S672.4,218,643.1,285"/>
		<ellipse class="st7" cx="266.4" cy="422.1" rx="129.9" ry="121.2"/>
		<ellipse class="st7" cx="556.7" cy="427" rx="129.9" ry="121.2"/>
		<circle class="st4" cx="265.7" cy="427" r="91.6"/>
		<circle class="st4" cx="556.7" cy="429.6" r="91.6"/>
		<ellipse class="st7" cx="306.5" cy="359.5" rx="45.7" ry="42.6"/>
		<ellipse class="st7" cx="600.4" cy="372.9" rx="45.7" ry="42.6"/>
	</g>
	<g>
		<path class="st4" d="M409.6,583.3"/>
	</g>
</g>
<path class="st4" d="M419.8,573.3c0,15.2-17.9,63.6-40,63.6s-40-48.5-40-63.6s17.9-27.4,40-27.4S419.8,558.1,419.8,573.3z"/>
<path class="st4" d="M466.9,573.3c0,15.2-17.9,63.6-40,63.6s-40-48.5-40-63.6s17.9-27.4,40-27.4S466.9,558.1,466.9,573.3z"/>
<path class="st4" d="M339.8,573.3c0,0-3.8-38.3,66.7-36.3s60.4,36.3,60.4,36.3"/>
</svg>
