<?xml version="1.0" encoding="utf-8"?>
<!-- Generator: Adobe Illustrator 21.1.0, SVG Export Plug-In . SVG Version: 6.00 Build 0)  -->
<svg version="1.1" id="Livello_1" xmlns="http://www.w3.org/2000/svg" xmlns:xlink="http://www.w3.org/1999/xlink" x="0px" y="0px"
	 viewBox="0 0 128 128" style="enable-background:new 0 0 128 128;" xml:space="preserve">
<style type="text/css">
	.st0{fill:#FFFFFF;stroke:#FFFFFF;stroke-width:4;stroke-linecap:round;stroke-miterlimit:10;}
</style>
<g>
	<path class="st0" d="M65.6,44.6c0,0,6.3-1.2,10.8,6c4.1,6.5,0.5,11.8,0.5,11.8s-2.7,3.7-2,9.1c0.7,5.4,3.7,8,3.7,8
		s3.6,4.6,10.9,4.6c0,0,5.1-0.6,10.5,6.4c4.4,5.8,2.2,9.5,2.2,9.5s-1.3,1.6-2,4.2c0,0-2.3,8.8,5.9,12.7c7.4,3.6,12.6-2,12.6-2
		c6.2-6.7,2-13.3,2-13.3c-3.8-6.5-11-5.7-11-5.7s-3.5,0.3-7.8-6.5c-4.7-7.5-0.6-12.3-0.6-12.3c1.4-2,1.9-5.8,1.9-5.8s1-6-3.7-11.1
		c-4.6-5.1-10.9-4.6-10.9-4.6s-7,0.2-10.4-6.1c-4-7.5,0.1-12.6,0.1-12.6s9.7-14.5-6.3-25c0,0-13.4-7.3-23,6.1c0,0-7.8,11.1,2.9,22
		C52,40,57,45.5,65.6,44.6z"/>
	<path class="st0" d="M62.4,44.6c0,0-6.3-1.2-10.8,6c-4.1,6.5-0.5,11.8-0.5,11.8s2.7,3.7,2,9.1c-0.7,5.4-3.7,8-3.7,8
		s-3.6,4.6-10.9,4.6c0,0-5.1-0.6-10.5,6.4c-4.4,5.8-2.2,9.5-2.2,9.5s1.3,1.6,2,4.2c0,0,2.3,8.8-5.9,12.7c-7.4,3.6-12.6-2-12.6-2
		c-6.2-6.7-2-13.3-2-13.3c3.8-6.5,11-5.7,11-5.7s3.5,0.3,7.8-6.5c4.7-7.5,0.6-12.3,0.6-12.3c-1.4-2-1.9-5.8-1.9-5.8s-1-6,3.7-11.1
		s10.9-4.6,10.9-4.6s7,0.2,10.4-6.1c4-7.5-0.1-12.6-0.1-12.6s-9.7-14.5,6.3-25c0,0,13.4-7.3,23,6.1c0,0,7.8,11.1-2.9,22
		C76,40,71,45.5,62.4,44.6z"/>
</g>
</svg>
