<?xml version="1.0" encoding="utf-8"?>
<!-- Generator: Adobe Illustrator 21.1.0, SVG Export Plug-In . SVG Version: 6.00 Build 0)  -->
<svg version="1.1" id="Livello_1" xmlns="http://www.w3.org/2000/svg" xmlns:xlink="http://www.w3.org/1999/xlink" x="0px" y="0px"
	 viewBox="0 0 4800 800" style="enable-background:new 0 0 4800 800;" xml:space="preserve">
<style type="text/css">
	@import url('https://fonts.googleapis.com/css2?family=Raleway:ital,wght@0,100;0,200;0,300;0,400;0,500;0,600;0,700;0,800;0,900;1,100;1,200&display=swap');
	.st0{stroke:#FF0000;stroke-width:3;stroke-miterlimit:10;}
	.st1{fill:#FF0000;stroke:#FF0000;stroke-width:4;stroke-miterlimit:10;}
	.st2{fill:#D37F2A;}
	.st3{fill:#C1272D;stroke:#FF0000;stroke-miterlimit:10;}
	.st4{fill:#603813;stroke:#603813;stroke-miterlimit:10;}
	.st5{fill:#E07722;stroke:#E07722;stroke-miterlimit:10;}
	.st6{fill:#D37F2A;stroke:#D37F2A;stroke-miterlimit:10;}
	.st7{fill:#FFFFFF;stroke:#FFFFFF;stroke-miterlimit:10;}
	.st8{fill:none;}
	.st9{fill:#603813;}
	.st10{font-family:'Raleway-ExtraBold';}
	.st11{font-size:480px;}
	.st12{letter-spacing:24;}
</style>
<path class="st0" d="M370.2,769.4"/>
<path class="st1" d="M92.2,679.4"/>
<path class="st2" d="M90.7,554.7"/>
<g>
	<path class="st2" d="M555,638.5"/>
	<path class="st2" d="M163.7,638.5"/>
	<path class="st2" d="M639.4,554.7"/>
	<path class="st3" d="M205.3,683.4"/>
	<path class="st1" d="M621.3,679.4"/>
	<g>
		<path class="st4" d="M413.2,195.2c0,0,34.1-127.2,136.4-95.1s104.2,99.3,67.5,183.2"/>
		<path class="st0" d="M336.4,392.5"/>
		<g>
			<g>
				<path class="st4" d="M692.8,401.9c0,136.9-142.7,204.3-326.8,204.3s-340-67.4-340-204.3S175.2,154,359.4,154
					S692.8,265,692.8,401.9z"/>
				<path class="st4" d="M25.9,401.9c0,0,2.2,167.8,168.6,229.9c0,0,53.1,19.2,103.4,54c61.4,42.5,113.3,2.7,113.3,2.7"/>
				<path class="st4" d="M692.7,407.2c0,0-2.7,162.4-169.1,224.6c0,0-53.1,19.2-103.4,54c-61.4,42.5-113.3,2.7-113.3,2.7"/>
			</g>
			<polygon class="st4" points="258.7,597.5 359.4,673.2 458.6,596.1 			"/>
		</g>
		<g>
			<g>
				<path class="st5" d="M660.9,408.5c0,125.6-129,187.4-295.6,187.4S57.8,534.1,57.8,408.5s135-227.4,301.5-227.4
					S660.9,282.9,660.9,408.5z"/>
				<path class="st5" d="M57.8,408.5c0,0,2,153.9,152.5,210.9c0,0,48.1,17.6,93.5,49.5c55.5,39,102.5,2.5,102.5,2.5"/>
				<path class="st5" d="M660.8,413.4c0,0-2.5,149-153,206c0,0-48.1,17.6-93.5,49.5c-55.5,39-102.5,2.5-102.5,2.5"/>
			</g>
			<polygon class="st5" points="268.3,587.9 359.4,657.4 449.1,586.6 			"/>
		</g>
		<path class="st4" d="M69.4,279.4"/>
		<path class="st4" d="M122.2,245.9c0,0-17.3-16-19-64.8c-1-28.2,19.2-28.7,57.1-35.4c35.3-6.2,57.4-0.5,65,22.6
			c6.6,20.2,13.5,35.7,18.1,45.2c3.2,6.5,10.2,10.2,17.4,9.1l1.3-0.2c8.2-1.3,14.3-8.4,14-16.7c-0.7-23.6-9.4-50.7-10.9-55.3
			c-0.1-0.4-0.3-0.9-0.5-1.3c-25.6-60.3-96.8-47.3-103.8-45.9c-0.4,0.1-0.7,0.1-1.1,0.2c-7.5,1-87.8,13.4-93.5,73.4
			c-5.9,63,31,94.6,31,94.6"/>
		<path class="st4" d="M111.4,236.2"/>
		<path class="st4" d="M232.1,248"/>
		<path class="st5" d="M247.8,240.5l-136.4-4.3c0,0-33.9-39.5-10.9-74.7s69.9-35.1,69.9-35.1s48.3-5.5,68.2,27.6
			C254,179.6,247.8,240.5,247.8,240.5z"/>
		<path class="st6" d="M111.4,236.2c0,0,9.7,17.7,19.7,23.7c10,6,39.3-28.8,39.3-28.8L111.4,236.2z"/>
		<path class="st5" d="M432.4,201c0,0,27.3-101.6,109-76s83.3,79.4,53.9,146.4"/>
		<ellipse class="st7" cx="218.6" cy="408.5" rx="129.9" ry="121.2"/>
		<ellipse class="st7" cx="508.9" cy="413.4" rx="129.9" ry="121.2"/>
		<circle class="st4" cx="217.9" cy="413.4" r="91.6"/>
		<circle class="st4" cx="508.9" cy="415.9" r="91.6"/>
		<ellipse class="st7" cx="258.7" cy="345.8" rx="45.7" ry="42.6"/>
		<ellipse class="st7" cx="552.6" cy="359.2" rx="45.7" ry="42.6"/>
	</g>
	<g>
		<path class="st4" d="M361.8,569.7"/>
	</g>
</g>
<path class="st4" d="M372,559.7c0,15.2-17.9,63.6-40,63.6s-40-48.5-40-63.6s17.9-27.4,40-27.4S372,544.5,372,559.7z"/>
<path class="st4" d="M419.1,559.7c0,15.2-17.9,63.6-40,63.6c-22.1,0-40-48.5-40-63.6s17.9-27.4,40-27.4
	C401.1,532.2,419.1,544.5,419.1,559.7z"/>
<path class="st4" d="M291.9,559.7c0,0-3.8-38.3,66.7-36.3s60.4,36.3,60.4,36.3"/>
<rect x="835.8" y="233.2" class="st8" width="2186.8" height="365.5"/>
<text transform="matrix(1 0 0 1 835.8423 583.5885)" class="st9 st10 st11 st12">TARSIER</text>
</svg>
