<?xml version="1.0" encoding="utf-8"?>
<!-- Generator: Adobe Illustrator 21.1.0, SVG Export Plug-In . SVG Version: 6.00 Build 0)  -->
<svg version="1.1" id="Livello_1" xmlns="http://www.w3.org/2000/svg" xmlns:xlink="http://www.w3.org/1999/xlink" x="0px" y="0px"
	 viewBox="0 0 800 800" style="enable-background:new 0 0 800 800;" xml:space="preserve">
<style type="text/css">
	.st0{fill:#00FF00;stroke:#000000;stroke-width:3;stroke-miterlimit:10;}
	.st1{fill:#FFFFFF;}
	.st2{fill:#FFFFFF;stroke:#FFFFFF;stroke-width:4;stroke-linecap:round;stroke-miterlimit:10;}
</style>
<path class="st0" d="M303.9,147.3"/>
<g>
	<path class="st1" d="M325.2,466.7h-0.1c-0.3,0.9-0.8,1.7-1.5,2.5c-0.6,0.8-1.4,1.5-2.3,2.1c-0.9,0.6-2,1.1-3.1,1.4
		c-1.2,0.3-2.5,0.5-3.9,0.5c-3.1,0-5.5-0.7-7.2-2c-1.7-1.3-2.5-3.4-2.5-6.2c0-1.7,0.3-3.1,1-4.2s1.5-1.9,2.6-2.5
		c1-0.6,2.2-1.1,3.5-1.3c1.3-0.3,2.5-0.5,3.7-0.6l3.3-0.3c1.5-0.1,2.8-0.3,3.7-0.5c0.9-0.2,1.6-0.6,2-1c0.5-0.4,0.7-1,0.8-1.7
		c0.1-0.7,0.2-1.5,0.2-2.5c0-0.8-0.2-1.5-0.5-2.2c-0.3-0.7-0.8-1.3-1.4-1.8c-0.6-0.5-1.5-0.9-2.5-1.2s-2.3-0.5-3.7-0.5
		c-2.6,0-4.7,0.6-6.3,1.9c-1.6,1.3-2.5,3.2-2.6,5.8h-2.2c0.2-3.2,1.2-5.6,3.1-7.2c1.9-1.6,4.6-2.4,8.1-2.4s6.1,0.7,7.7,2.1
		c1.6,1.4,2.4,3.2,2.4,5.4v16.9c0,0.4,0,0.8,0,1.2c0,0.4,0.1,0.8,0.2,1.1s0.3,0.6,0.6,0.8c0.3,0.2,0.6,0.3,1.1,0.3
		c0.4,0,0.9-0.1,1.6-0.2v1.8c-0.6,0.2-1.2,0.2-1.8,0.2c-0.9,0-1.6-0.1-2.1-0.3s-0.9-0.5-1.2-0.9c-0.3-0.4-0.4-0.8-0.5-1.3
		c-0.1-0.5-0.1-1.1-0.1-1.7V466.7z M325.2,455.9c-0.5,0.6-1.3,1.1-2.4,1.3c-1.1,0.2-2.3,0.4-3.6,0.5l-3.6,0.3
		c-1.1,0.1-2.1,0.3-3.2,0.5c-1.1,0.2-2,0.6-2.9,1s-1.5,1.2-2.1,2c-0.5,0.8-0.8,2-0.8,3.3c0,2.2,0.7,3.7,2,4.8c1.4,1,3.2,1.6,5.6,1.6
		c2.5,0,4.4-0.4,5.8-1.3s2.5-1.9,3.3-3.1s1.2-2.3,1.4-3.3c0.2-1.1,0.3-1.8,0.3-2.2V455.9z"/>
	<path class="st1" d="M336.4,449.8h0.2c0.3-0.9,0.7-1.8,1.4-2.7c0.7-0.8,1.5-1.5,2.5-2.2s2.1-1.1,3.3-1.4c1.2-0.3,2.5-0.5,3.8-0.4
		v2.2c-1.1-0.2-2.4,0-3.9,0.3c-1.5,0.4-2.8,1.2-4.2,2.5c-0.5,0.6-1,1.1-1.4,1.6c-0.4,0.5-0.7,1.1-1,1.8c-0.3,0.6-0.5,1.4-0.6,2.2
		s-0.2,1.7-0.3,2.8v15.9h-2.2v-29.1h2.2V449.8z"/>
	<path class="st1" d="M362.1,445.2h-6.3v20.3c0,1.2,0.1,2.1,0.4,2.8c0.3,0.7,0.7,1.2,1.2,1.6c0.5,0.4,1.2,0.6,2,0.7
		c0.8,0.1,1.7,0.1,2.7,0.1v1.9c-1.1,0.1-2.2,0.1-3.2,0c-1-0.1-2-0.4-2.7-0.8c-0.8-0.5-1.4-1.2-1.9-2.1c-0.5-0.9-0.7-2.2-0.6-3.9
		v-20.3h-5.4v-1.9h5.4v-9.1h2.2v9.1h6.3V445.2z"/>
	<path class="st1" d="M366.1,458.2v0.3c0,1.7,0.2,3.3,0.7,4.9c0.5,1.5,1.1,2.9,2,4.1c0.9,1.2,2,2.1,3.4,2.8c1.3,0.7,2.9,1,4.7,1
		c2.9,0,5.2-0.8,6.9-2.3s2.9-3.7,3.5-6.4h2.2c-0.6,3.4-2,6-4.2,7.8c-2.1,1.8-5,2.7-8.5,2.7c-2.2,0-4-0.4-5.6-1.2
		c-1.6-0.8-2.9-1.8-4-3.2c-1.1-1.3-1.9-2.9-2.4-4.8c-0.5-1.8-0.8-3.8-0.8-5.9c0-2,0.3-4,0.8-5.9c0.5-1.9,1.4-3.5,2.5-4.9
		c1.1-1.4,2.5-2.5,4.1-3.4c1.6-0.8,3.6-1.3,5.8-1.3c2,0,3.8,0.4,5.4,1.1c1.6,0.8,2.9,1.8,3.9,3.1s1.9,2.8,2.4,4.5
		c0.5,1.7,0.8,3.6,0.8,5.5c0,0.2,0,0.4,0,0.7c0,0.2,0,0.4,0,0.6H366.1z M387.5,456.3c-0.1-1.6-0.3-3.1-0.8-4.5
		c-0.5-1.4-1.1-2.7-2-3.7c-0.9-1.1-2-1.9-3.2-2.6c-1.3-0.6-2.7-1-4.3-1c-1.7,0-3.3,0.3-4.6,1c-1.3,0.7-2.4,1.5-3.3,2.6
		c-0.9,1.1-1.6,2.3-2.1,3.8c-0.5,1.4-0.8,2.9-0.9,4.4H387.5z"/>
	<path class="st1" d="M394.7,443.4h2.2v5.9h0.1c0.2-0.9,0.6-1.8,1.2-2.6c0.6-0.8,1.3-1.5,2.1-2.1c0.8-0.6,1.7-1.1,2.7-1.4
		c1-0.3,2-0.5,3.1-0.5c1.4,0,2.6,0.2,3.6,0.5c1,0.4,1.9,0.8,2.6,1.4s1.3,1.2,1.7,2c0.4,0.7,0.7,1.5,0.8,2.2h0.1c0.9-2,2-3.6,3.5-4.6
		c1.5-1,3.4-1.6,5.7-1.6c1.3,0,2.5,0.2,3.7,0.6c1.1,0.4,2.1,1,2.9,1.8c0.8,0.8,1.4,1.8,1.9,3.1c0.5,1.2,0.7,2.7,0.7,4.4v19.9h-2.2
		v-19.9c0-1.8-0.3-3.3-0.8-4.4c-0.6-1.1-1.2-1.9-2-2.4c-0.8-0.5-1.5-0.9-2.3-1c-0.8-0.1-1.4-0.2-1.8-0.2c-1.3,0-2.5,0.2-3.7,0.7
		c-1.1,0.5-2.1,1.1-2.9,2c-0.8,0.9-1.4,2-1.9,3.4c-0.5,1.3-0.7,2.9-0.7,4.6v17.2H413v-19.9c0-1.8-0.3-3.3-0.8-4.3
		c-0.5-1.1-1.2-1.9-1.9-2.4c-0.7-0.5-1.5-0.9-2.3-1c-0.8-0.2-1.4-0.2-1.8-0.2c-1,0-2.1,0.2-3.2,0.6c-1.1,0.4-2.1,1.1-3,1.9
		c-0.9,0.9-1.6,2-2.2,3.3s-0.8,3-0.8,4.8v17.2h-2.2V443.4z"/>
	<path class="st1" d="M440.3,437.9V432h2.2v5.8H440.3z M440.3,472.5v-29.1h2.2v29.1H440.3z"/>
	<path class="st1" d="M471.7,466.2h-0.1c-1.2,2.3-2.7,4-4.5,5.2c-1.8,1.2-4,1.7-6.6,1.7c-2.2,0-4.1-0.4-5.7-1.2
		c-1.6-0.8-2.9-1.9-3.9-3.3c-1-1.4-1.8-3-2.3-4.8c-0.5-1.8-0.7-3.7-0.7-5.7c0-2.2,0.3-4.2,0.8-6c0.5-1.9,1.3-3.5,2.4-4.8
		c1.1-1.4,2.4-2.4,4-3.2c1.6-0.8,3.5-1.2,5.7-1.2c1.2,0,2.3,0.2,3.5,0.5c1.1,0.3,2.2,0.8,3.1,1.4s1.8,1.4,2.5,2.3s1.3,1.9,1.6,3.1
		h0.1V432h2.2v40.4h-2.2V466.2z M460.9,471.3c1.8,0,3.4-0.4,4.8-1.1c1.3-0.8,2.5-1.8,3.3-3c0.9-1.2,1.5-2.7,2-4.3
		c0.4-1.6,0.7-3.2,0.7-4.9c0-1.7-0.2-3.3-0.7-5c-0.4-1.6-1.1-3-2-4.3c-0.9-1.3-2-2.3-3.4-3c-1.4-0.8-3-1.1-4.8-1.1
		c-1.9,0-3.6,0.4-4.9,1.1c-1.4,0.7-2.5,1.7-3.4,3c-0.9,1.2-1.5,2.7-1.9,4.3c-0.4,1.6-0.6,3.3-0.6,5c0,1.7,0.2,3.4,0.7,5
		c0.4,1.6,1.1,3,2,4.3c0.9,1.2,2,2.2,3.4,3C457.4,470.9,459,471.3,460.9,471.3z"/>
	<path class="st1" d="M481.5,458.2v0.3c0,1.7,0.2,3.3,0.7,4.9c0.5,1.5,1.1,2.9,2,4.1c0.9,1.2,2,2.1,3.4,2.8c1.3,0.7,2.9,1,4.7,1
		c2.9,0,5.2-0.8,6.9-2.3s2.9-3.7,3.5-6.4h2.2c-0.6,3.4-2,6-4.2,7.8c-2.1,1.8-5,2.7-8.5,2.7c-2.2,0-4-0.4-5.6-1.2
		c-1.6-0.8-2.9-1.8-4-3.2c-1.1-1.3-1.9-2.9-2.4-4.8c-0.5-1.8-0.8-3.8-0.8-5.9c0-2,0.3-4,0.8-5.9c0.5-1.9,1.4-3.5,2.5-4.9
		c1.1-1.4,2.5-2.5,4.1-3.4c1.6-0.8,3.6-1.3,5.8-1.3c2,0,3.8,0.4,5.4,1.1c1.6,0.8,2.9,1.8,3.9,3.1s1.9,2.8,2.4,4.5
		c0.5,1.7,0.8,3.6,0.8,5.5c0,0.2,0,0.4,0,0.7c0,0.2,0,0.4,0,0.6H481.5z M502.9,456.3c-0.1-1.6-0.3-3.1-0.8-4.5
		c-0.5-1.4-1.1-2.7-2-3.7c-0.9-1.1-2-1.9-3.2-2.6c-1.3-0.6-2.7-1-4.3-1c-1.7,0-3.3,0.3-4.6,1c-1.3,0.7-2.4,1.5-3.3,2.6
		c-0.9,1.1-1.6,2.3-2.1,3.8c-0.5,1.4-0.8,2.9-0.9,4.4H502.9z"/>
</g>
<g>
	<path class="st2" d="M404.6,325.2c0,0,7.3-1.4,12.6,7c4.8,7.5,0.5,13.7,0.5,13.7s-3.1,4.3-2.3,10.6c0.8,6.2,4.3,9.3,4.3,9.3
		s4.2,5.4,12.7,5.3c0,0,5.9-0.7,12.1,7.4c5.1,6.7,2.6,11.1,2.6,11.1s-1.5,1.9-2.3,4.9c0,0-2.7,10.2,6.8,14.8
		c8.6,4.1,14.6-2.3,14.6-2.3c7.2-7.8,2.3-15.5,2.3-15.5c-4.4-7.6-12.8-6.6-12.8-6.6s-4,0.4-9.1-7.6c-5.5-8.7-0.7-14.2-0.7-14.2
		c1.7-2.3,2.2-6.8,2.2-6.8s1.1-6.9-4.3-12.8c-5.4-5.9-12.6-5.4-12.6-5.4s-8.1,0.2-12-7.1c-4.7-8.7,0.1-14.6,0.1-14.6
		s11.3-16.8-7.3-29c0,0-15.6-8.5-26.7,7.1c0,0-9,12.8,3.3,25.6C388.8,319.9,394.6,326.3,404.6,325.2z"/>
	<path class="st2" d="M400.8,325.2c0,0-7.3-1.4-12.6,7c-4.8,7.5-0.5,13.7-0.5,13.7s3.1,4.3,2.3,10.6c-0.8,6.2-4.3,9.3-4.3,9.3
		s-4.2,5.4-12.7,5.3c0,0-5.9-0.7-12.1,7.4c-5.1,6.7-2.6,11.1-2.6,11.1s1.5,1.9,2.3,4.9c0,0,2.7,10.2-6.8,14.8
		c-8.6,4.1-14.6-2.3-14.6-2.3c-7.2-7.8-2.3-15.5-2.3-15.5c4.4-7.6,12.8-6.6,12.8-6.6s4,0.4,9.1-7.6c5.5-8.7,0.7-14.2,0.7-14.2
		c-1.7-2.3-2.2-6.8-2.2-6.8s-1.1-6.9,4.3-12.8c5.4-5.9,12.6-5.4,12.6-5.4s8.1,0.2,12-7.1c4.7-8.7-0.1-14.6-0.1-14.6
		s-11.3-16.8,7.3-29c0,0,15.6-8.5,26.7,7.1c0,0,9,12.8-3.3,25.6C416.6,319.9,410.8,326.3,400.8,325.2z"/>
</g>
</svg>
