<svg xmlns="http://www.w3.org/2000/svg" version="1.1" xmlns:xlink="http://www.w3.org/1999/xlink" xmlns:svgjs="http://svgjs.dev/svgjs" viewBox="0 0 800 800" opacity="0.31"><defs><linearGradient x1="50%" y1="0%" x2="50%" y2="100%" id="ccchaos-grad"><stop stop-color="hsl(305, 77%, 50%)" stop-opacity="1" offset="0%"></stop><stop stop-color="hsl(305, 77%, 80%)" stop-opacity="1" offset="100%"></stop></linearGradient></defs><g stroke-width="2" stroke="url(#ccchaos-grad)" fill="none" stroke-linecap="round"><path d="M382.28 100.4C391.74 101.54 401.22 103.65 410.72 106.63 420.24 109.96 429.81 113.98 439.41 118.57 449.06 123.23 458.78 128.27 468.57 133.59 478.45 138.71 488.44 143.96 498.53 149.27 508.74 154.21 519.08 159.15 529.53 164.06 540.1 168.54 550.77 173.01 561.49 177.47 572.28 181.55 583.05 185.7 593.71 189.95 604.3 193.93 614.65 198.1 624.63 202.5 634.31 206.76 643.43 211.33 651.83 216.24 659.66 221.11 666.57 226.38 672.4 232.04 677.44 237.74 681.27 243.87 683.79 250.41 685.46 257.02 685.83 264.03 684.91 271.43 683.35 278.89 680.71 286.71 677.14 294.85 673.39 303.04 669.12 311.52 664.54 320.25 660.45 329.01 656.52 338 653 347.17 650.58 356.36 648.91 365.72 648.12 375.22 648.75 384.73 650.26 394.16 652.55 403.5 655.95 412.85 659.77 422.13 663.79 431.35 668.32 440.61 672.58 449.85 676.32 459.07 679.92 468.39 682.61 477.75 684.25 487.17 685.26 496.74 684.99 506.44 683.43 516.25 681.03 526.27 677.32 536.45 672.39 546.78 666.68 557.31 659.88 567.97 652.14 578.71 643.83 589.56 634.79 600.39 625.17 611.1 615.24 621.72 604.93 632.03 594.37 641.88 583.72 651.33 572.96 660.08 562.17 667.94 551.44 675.09 540.76 681.11 530.17 685.86 519.69 689.67 509.33 692.09 499.08 693.07 488.96 693.11 478.95 691.81 469.04 689.23 459.22 686.08 449.47 681.98 439.8 677.16 430.18 672.42 420.6 667.45 411.06 662.52 401.55 658.41 392.05 654.83 382.59 651.97 373.13 650.48 363.91 649.94 354.95 650.31 345.99 652 337.28 654.36 328.84 657.21 320.39 660.86 312.22 664.56 304.35 668.07 296.46 671.7 288.86 674.69 281.57 676.84 274.26 678.55 267.25 679.12 260.54 678.49 253.78 677.09 247.3 674.39 241.1 670.45 234.81 665.69 228.77 659.78 222.98 652.83 217.04 645.23 211.3 636.78 205.75 627.64 200.02 618.09 194.45 608.05 189.04 597.66 183.41 587.11 177.92 576.35 172.59 565.5 167.04 554.65 161.66 543.79 156.48 532.99 151.13 522.28 146.02 511.65 141.18 501.14 136.27 490.73 131.7 480.43 127.52 470.24 123.38 460.14 119.71 450.13 116.56 440.21 113.55 430.34 111.14 420.53 109.38 410.79 107.84 401.07 106.99 391.4 106.87 381.8 107.02 372.2 107.89 362.88 109.46 353.86 111.25 344.83 113.68 336.11 116.7 327.7 119.86 319.3 123.54 311.22 127.69 303.49 131.86 295.77 136.43 288.4 141.33 281.4 146.15 274.4 151.24 267.75 156.57 261.47 161.72 255.15 167.07 249.17 172.59 243.52 177.88 237.77 183.34 232.29 188.94 227.06 194.32 221.66 199.86 216.42 205.56 211.34 211.08 205.98 216.79 200.69 222.71 195.45 228.49 189.86 234.52 184.27 240.8 178.66 246.98 172.69 253.45 166.7 260.21 160.73 266.92 154.46 273.93 148.27 281.25 142.25 288.54 136.08 296.14 130.21 304.03 124.73 311.91 119.36 320.09 114.55 328.53 110.43 336.97 106.66 345.69 103.73 354.65 101.73 363.61 100.26 372.82 99.8 382.27 100.4" stroke-dasharray="0 0" transform="rotate(0, 400, 400)" opacity="0.05"></path><path d="M385.66 111C394.83 112.13 404.06 114.17 413.34 117.06 422.63 120.28 432 124.18 441.43 128.64 450.9 133.19 460.47 138.13 470.11 143.36 479.83 148.43 489.66 153.65 499.58 158.96 509.59 163.94 519.71 168.94 529.89 173.92 540.16 178.5 550.47 183.08 560.77 187.64 571.07 191.84 581.29 196.08 591.34 200.4 601.25 204.43 610.85 208.62 620.02 212.99 628.86 217.19 637.1 221.65 644.59 226.4 651.54 231.07 657.56 236.09 662.55 241.46 666.82 246.83 669.95 252.59 671.87 258.72 673.05 264.89 673.06 271.45 671.92 278.37 670.25 285.33 667.64 292.64 664.23 300.28 660.72 307.96 656.76 315.94 652.56 324.19 648.84 332.46 645.29 340.98 642.1 349.73 639.93 358.48 638.44 367.44 637.72 376.6 638.28 385.76 639.63 394.9 641.67 404.01 644.74 413.13 648.2 422.24 651.84 431.34 655.99 440.48 659.92 449.64 663.42 458.82 666.86 468.1 669.51 477.45 671.24 486.87 672.45 496.43 672.53 506.11 671.45 515.9 669.63 525.85 666.62 535.93 662.45 546.11 657.58 556.43 651.65 566.81 644.81 577.2 637.4 587.62 629.25 597.94 620.47 608.04 611.36 617.99 601.8 627.55 591.93 636.59 581.92 645.19 571.71 653.06 561.42 660.02 551.12 666.29 540.81 671.48 530.54 675.45 520.34 678.56 510.21 680.39 500.18 680.89 490.24 680.6 480.39 679.08 470.64 676.44 460.97 673.33 451.39 669.4 441.89 664.84 432.45 660.4 423.06 655.78 413.75 651.19 404.46 647.39 395.22 644.06 386.04 641.36 376.87 639.92 367.96 639.32 359.33 639.54 350.68 640.97 342.31 643.01 334.21 645.51 326.1 648.78 318.27 652.12 310.73 655.33 303.16 658.72 295.88 661.58 288.89 663.73 281.86 665.54 275.1 666.37 268.63 666.12 262.1 665.23 255.81 663.16 249.79 659.95 243.66 656 237.75 650.96 232.05 644.92 226.21 638.26 220.54 630.74 215.06 622.51 209.38 613.85 203.84 604.65 198.46 595.03 192.87 585.19 187.41 575.08 182.11 564.81 176.6 554.48 171.27 544.07 166.12 533.67 160.83 523.29 155.77 512.96 151 502.71 146.16 492.53 141.65 482.44 137.54 472.45 133.47 462.53 129.86 452.71 126.77 442.99 123.83 433.32 121.46 423.73 119.73 414.24 118.23 404.76 117.39 395.37 117.28 386.07 117.42 376.78 118.29 367.79 119.82 359.12 121.58 350.45 123.96 342.09 126.92 334.06 130.03 326.02 133.65 318.31 137.72 310.94 141.83 303.56 146.33 296.52 151.16 289.82 155.92 283.1 160.96 276.71 166.23 270.65 171.35 264.53 176.66 258.7 182.13 253.16 187.4 247.49 192.83 242.05 198.39 236.82 203.74 231.39 209.24 226.1 214.89 220.93 220.35 215.48 225.98 210.08 231.81 204.71 237.48 199.02 243.37 193.31 249.48 187.61 255.49 181.58 261.76 175.55 268.29 169.56 274.76 163.32 281.5 157.2 288.53 151.25 295.52 145.22 302.8 139.5 310.37 134.18 317.91 129 325.74 124.39 333.85 120.44 341.94 116.85 350.32 114.07 358.96 112.19 367.58 110.81 376.49 110.41 385.65 111" stroke-dasharray="0 0" transform="rotate(4.04, 400, 400)" opacity="0.09"></path><path d="M389.71 121.61C398.59 122.71 407.57 124.69 416.61 127.47 425.67 130.59 434.81 134.36 444.03 138.68 453.29 143.11 462.65 147.93 472.09 153.05 481.59 158.06 491.18 163.23 500.84 168.51 510.57 173.51 520.37 178.55 530.2 183.58 540.06 188.26 549.92 192.93 559.7 197.59 569.45 201.91 579.04 206.25 588.4 210.65 597.58 214.76 606.4 219 614.75 223.38 622.74 227.56 630.11 231.96 636.72 236.61 642.81 241.14 648.01 245.98 652.22 251.13 655.79 256.24 658.29 261.69 659.69 267.49 660.47 273.3 660.18 279.46 658.89 285.97 657.16 292.5 654.62 299.37 651.39 306.57 648.13 313.78 644.49 321.31 640.65 329.12 637.3 336.94 634.1 345.04 631.23 353.39 629.3 361.73 627.96 370.33 627.31 379.16 627.82 387.99 629.02 396.85 630.82 405.72 633.58 414.6 636.68 423.52 639.96 432.47 643.74 441.46 647.35 450.5 650.6 459.6 653.84 468.78 656.41 478.04 658.18 487.39 659.54 496.85 659.9 506.42 659.22 516.08 657.91 525.85 655.5 535.71 652.04 545.63 647.93 555.61 642.83 565.61 636.83 575.53 630.31 585.42 623.02 595.13 615.1 604.56 606.82 613.77 598.06 622.55 588.92 630.74 579.6 638.49 570.03 645.48 560.31 651.58 550.54 657.02 540.69 661.41 530.83 664.67 521 667.15 511.19 668.46 501.45 668.56 491.78 667.97 482.17 666.31 472.66 663.64 463.2 660.61 453.83 656.86 444.55 652.57 435.31 648.43 426.15 644.14 417.08 639.9 408.03 636.39 399.04 633.29 390.14 630.75 381.24 629.36 372.63 628.71 364.29 628.8 355.95 629.98 347.88 631.72 340.09 633.88 332.28 636.78 324.74 639.77 317.49 642.67 310.2 645.81 303.18 648.5 296.44 650.6 289.65 652.46 283.12 653.47 276.84 653.54 270.48 653.07 264.36 651.55 258.47 648.97 252.46 645.77 246.65 641.53 241.04 636.34 235.27 630.57 229.66 623.97 224.21 616.63 218.57 608.87 213.07 600.53 207.71 591.73 202.16 582.67 196.73 573.28 191.46 563.66 186 553.94 180.71 544.08 175.62 534.16 170.4 524.23 165.41 514.3 160.7 504.41 155.94 494.55 151.52 484.75 147.48 475.05 143.5 465.38 139.97 455.81 136.95 446.35 134.08 436.92 131.77 427.58 130.08 418.35 128.61 409.15 127.8 400.04 127.69 391.05 127.83 382.05 128.67 373.38 130.17 365.04 131.89 356.69 134.22 348.65 137.11 340.95 140.15 333.23 143.69 325.83 147.68 318.76 151.71 311.67 156.13 304.89 160.88 298.44 165.58 291.94 170.55 285.74 175.75 279.84 180.82 273.85 186.08 268.12 191.51 262.63 196.75 257 202.15 251.56 207.67 246.29 213 240.81 218.47 235.44 224.07 230.17 229.49 224.62 235.07 219.11 240.81 213.63 246.4 207.85 252.19 202.06 258.18 196.28 264.05 190.22 270.16 184.18 276.5 178.21 282.76 172.03 289.29 165.99 296.07 160.16 302.8 154.28 309.81 148.73 317.1 143.6 324.35 138.62 331.88 134.2 339.68 130.45 347.47 127.04 355.53 124.41 363.87 122.65 372.2 121.37 380.81 121.01 389.7 121.61" stroke-dasharray="0 0" transform="rotate(8.08, 400, 400)" opacity="0.13"></path><path d="M394.23 132.22C402.84 133.29 411.55 135.2 420.33 137.88 429.13 140.88 438.03 144.51 447 148.69 456 152.98 465.1 157.68 474.26 162.68 483.47 167.59 492.76 172.7 502.09 177.93 511.45 182.93 520.85 187.98 530.23 193.05 539.62 197.8 548.94 202.56 558.14 207.31 567.26 211.73 576.18 216.18 584.8 220.67 593.22 224.87 601.24 229.17 608.75 233.59 615.9 237.8 622.42 242.18 628.2 246.77 633.49 251.23 637.92 255.94 641.43 260.93 645.35 268.45 647.47 285.03 645.82 294.12 644.09 300.28 641.65 306.77 638.62 313.58 635.62 320.39 632.3 327.51 628.83 334.93 625.82 342.35 622.96 350.05 620.39 358.03 618.68 366.01 617.49 374.25 616.9 382.76 617.36 391.27 618.42 399.84 620 408.47 622.46 417.11 625.23 425.81 628.16 434.58 631.58 443.37 634.86 452.25 637.84 461.2 640.88 470.22 643.33 479.32 645.1 488.51 646.55 497.77 647.12 507.13 646.76 516.55 645.88 526.04 644.01 535.58 641.16 545.12 637.75 554.68 633.41 564.18 628.21 573.55 622.52 582.82 616.08 591.86 609 600.55 601.56 608.99 593.6 616.95 585.23 624.29 576.66 631.19 567.78 637.33 558.68 642.6 549.51 647.25 540.2 650.92 530.83 653.53 521.45 655.45 512.06 656.3 502.69 656.07 493.35 655.26 484.06 653.49 474.84 650.83 465.66 647.91 456.56 644.36 447.54 640.34 438.56 636.51 429.65 632.55 420.84 628.63 412.04 625.4 403.32 622.53 394.7 620.14 386.08 618.8 377.74 618.12 369.69 618.07 361.62 619.03 353.83 620.49 346.31 622.33 338.77 624.87 331.5 627.52 324.49 630.11 317.45 632.97 310.66 635.48 304.13 637.48 297.53 639.34 291.18 640.46 285.06 640.76 278.85 640.64 272.86 639.57 267.07 637.56 261.16 635 255.43 631.49 249.87 627.09 244.16 622.17 238.6 616.43 233.18 609.97 227.58 603.09 222.11 595.62 216.77 587.65 211.26 579.41 205.87 570.79 200.63 561.88 195.23 552.84 190 543.61 184.97 534.26 179.83 524.86 174.92 515.41 170.29 505.96 165.63 496.52 161.3 487.1 157.36 477.74 153.48 468.41 150.04 459.15 147.09 449.99 144.3 440.86 142.06 431.81 140.41 422.88 138.99 413.97 138.21 405.15 138.09 396.47 138.24 387.78 139.06 379.41 140.51 371.37 142.18 363.32 144.44 355.58 147.26 348.16 150.22 340.72 153.67 333.58 157.56 326.76 161.51 319.91 165.84 313.35 170.49 307.08 175.11 300.75 180 294.69 185.12 288.88 190.14 282.98 195.34 277.3 200.71 271.82 205.92 266.2 211.28 260.73 216.76 255.39 222.07 249.85 227.51 244.4 233.07 239.02 238.46 233.39 243.99 227.78 249.67 222.2 255.21 216.35 260.91 210.5 266.8 204.68 272.56 198.62 278.54 192.6 284.73 186.68 290.83 180.59 297.17 174.67 303.75 168.98 310.27 163.28 317.05 157.92 324.09 152.99 331.08 148.22 338.35 144.01 345.88 140.45 353.39 137.23 361.17 134.76 369.23 133.11 377.28 131.92 385.61 131.62 394.22 132.22" stroke-dasharray="0 0" transform="rotate(12.12, 400, 400)" opacity="0.16"></path><path d="M399.02 142.83C407.35 143.87 415.78 145.71 424.28 148.28 432.8 151.16 441.41 154.65 450.09 158.67 458.8 162.82 467.58 167.37 476.41 172.23 485.27 177.04 494.18 182.06 503.1 187.22 512.04 192.19 520.96 197.23 529.83 202.31 538.67 207.11 547.4 211.93 555.95 216.75 564.4 221.27 572.6 225.82 580.47 230.39 588.11 234.7 595.33 239.08 602.01 243.55 608.36 247.81 614.07 252.21 619.07 256.78 625.48 263.53 633.36 278.03 634.7 285.88 634.86 291.17 634.2 296.75 632.75 302.63 631.06 308.49 628.75 314.67 625.94 321.14 623.2 327.61 620.21 334.38 617.08 341.44 614.4 348.5 611.86 355.85 609.58 363.49 608.08 371.12 607.03 379.03 606.49 387.22 606.9 395.42 607.83 403.71 609.21 412.07 611.4 420.44 613.84 428.91 616.44 437.45 619.51 446.01 622.47 454.67 625.18 463.41 627.99 472.19 630.3 481.06 632.02 489.99 633.51 498.98 634.23 508.03 634.13 517.11 633.6 526.22 632.18 535.34 629.88 544.41 627.09 553.44 623.44 562.37 618.98 571.1 614.07 579.7 608.43 588.01 602.16 595.93 595.54 603.58 588.39 610.71 580.8 617.22 572.99 623.29 564.83 628.62 556.42 633.11 547.89 637.03 539.19 640.04 530.37 642.07 521.52 643.5 512.6 643.96 503.67 643.45 494.75 642.47 485.84 640.64 476.98 638.04 468.14 635.24 459.35 631.91 450.64 628.16 441.95 624.63 433.33 620.99 424.8 617.39 416.29 614.42 407.85 611.77 399.5 609.54 391.16 608.25 383.09 607.53 375.31 607.37 367.51 608.12 359.97 609.32 352.7 610.86 345.41 613.06 338.36 615.37 331.57 617.65 324.74 620.23 318.15 622.52 311.79 624.39 305.37 626.2 299.16 627.37 293.17 627.84 287.09 627.98 281.2 627.29 275.49 625.76 269.66 623.77 263.99 620.91 258.48 617.22 252.82 613.06 247.29 608.13 241.9 602.5 236.35 596.49 230.91 589.86 225.6 582.73 220.14 575.31 214.8 567.49 209.61 559.34 204.28 551.03 199.12 542.48 194.16 533.76 189.11 524.97 184.3 516.08 179.77 507.14 175.22 498.18 171.01 489.21 167.16 480.27 163.39 471.34 160.06 462.46 157.2 453.65 154.5 444.86 152.33 436.15 150.74 427.54 149.37 418.94 148.61 410.44 148.5 402.07 148.65 393.69 149.44 385.61 150.84 377.85 152.46 370.08 154.65 362.61 157.37 355.44 160.25 348.25 163.6 341.34 167.38 334.72 171.22 328.06 175.44 321.67 179.98 315.53 184.51 309.33 189.31 303.37 194.34 297.62 199.28 291.77 204.42 286.11 209.72 280.62 214.88 274.97 220.19 269.46 225.63 264.05 230.91 258.45 236.31 252.91 241.84 247.44 247.2 241.73 252.69 236.05 258.32 230.4 263.8 224.5 269.45 218.63 275.25 212.81 280.93 206.77 286.8 200.82 292.86 194.97 298.83 189.01 305.02 183.24 311.43 177.72 317.77 172.21 324.35 167.06 331.17 162.34 337.95 157.81 344.98 153.81 352.26 150.45 359.52 147.42 367.05 145.1 374.84 143.58 382.62 142.48 390.67 142.22 399.01 142.82" stroke-dasharray="0 0" transform="rotate(16.16, 400, 400)" opacity="0.20"></path><path d="M403.85 153.43C411.9 154.44 420.03 156.21 428.23 158.67 436.44 161.42 444.73 164.77 453.07 168.62 461.43 172.62 469.85 177.01 478.29 181.72 486.75 186.4 495.23 191.31 503.68 196.38 512.12 201.29 520.52 206.3 528.81 211.36 537.05 216.19 545.14 221.04 553.02 225.91 560.77 230.52 568.23 235.15 575.33 239.8 582.21 244.2 588.64 248.67 594.53 253.2 600.11 257.53 605.06 261.97 609.33 266.55 614.76 273.28 621.1 287.56 621.96 295.2 621.53 303.01 617 319.93 613.35 329.07 610.88 335.25 608.2 341.71 605.41 348.46 603.05 355.2 600.81 362.23 598.79 369.55 597.49 376.85 596.57 384.45 596.08 392.33 596.45 400.21 597.25 408.2 598.45 416.28 600.37 424.37 602.52 432.56 604.8 440.82 607.53 449.11 610.17 457.5 612.61 465.95 615.18 474.43 617.32 482.98 618.96 491.58 620.44 500.21 621.25 508.87 621.35 517.52 621.1 526.17 620.06 534.78 618.23 543.29 615.98 551.74 612.94 560.02 609.15 568.07 604.96 575.95 600.08 583.5 594.57 590.63 588.75 597.47 582.38 603.79 575.56 609.49 568.51 614.77 561.1 619.34 553.39 623.1 545.55 626.37 537.49 628.78 529.27 630.3 521 631.32 512.62 631.46 504.19 630.73 495.75 629.63 487.28 627.78 478.82 625.26 470.38 622.62 461.96 619.5 453.6 616.04 445.25 612.8 436.95 609.47 428.73 606.17 420.53 603.46 412.38 601.01 404.33 598.93 396.27 597.69 388.48 596.95 380.95 596.68 373.41 597.25 366.12 598.2 359.08 599.46 352.01 601.34 345.18 603.32 338.58 605.3 331.94 607.59 325.52 609.64 319.31 611.36 313.04 613.07 306.96 614.25 301.07 614.82 295.1 615.15 289.29 614.75 283.65 613.61 277.89 612.1 272.28 609.8 266.81 606.74 261.2 603.28 255.72 599.1 250.36 594.24 244.85 589.04 239.46 583.23 234.19 576.91 228.78 570.32 223.51 563.29 218.38 555.91 213.14 548.35 208.07 540.52 203.2 532.48 198.26 524.35 193.56 516.07 189.14 507.7 184.73 499.29 180.63 490.83 176.9 482.37 173.26 473.9 170.04 465.44 167.28 457.04 164.68 448.64 162.59 440.3 161.06 432.04 159.74 423.79 159.02 415.62 158.91 407.56 159.05 399.49 159.81 391.72 161.16 384.23 162.72 376.73 164.83 369.51 167.45 362.56 170.23 355.59 173.47 348.88 177.13 342.43 180.86 335.93 184.96 329.67 189.37 323.64 193.79 317.54 198.48 311.63 203.4 305.92 208.25 300.1 213.31 294.44 218.52 288.92 223.63 283.25 228.88 277.68 234.26 272.21 239.49 266.55 244.86 260.95 250.33 255.4 255.66 249.64 261.12 243.91 266.69 238.22 272.14 232.32 277.72 226.46 283.45 220.67 289.06 214.71 294.85 208.84 300.8 203.11 306.66 197.31 312.72 191.71 318.97 186.38 325.16 181.1 331.57 176.18 338.2 171.68 344.78 167.38 351.6 163.61 358.65 160.45 365.68 157.61 372.96 155.46 380.49 154.05 388.01 153.05 395.79 152.83 403.84 153.43" stroke-dasharray="0 0" transform="rotate(20.200000000000003, 400, 400)" opacity="0.24"></path><path d="M408.5 164.04C416.25 165.02 424.07 166.71 431.94 169.05 439.82 171.68 447.75 174.87 455.72 178.55 463.7 182.38 471.7 186.6 479.71 191.14 487.71 195.68 495.7 200.45 503.64 205.41 511.54 210.24 519.36 215.18 527.04 220.2 534.66 225.02 542.08 229.89 549.26 234.79 556.3 239.45 563.02 244.14 569.37 248.85 575.5 253.34 581.17 257.88 586.32 262.48 593.3 269.12 603.6 282.73 606.74 289.8 608.63 296.89 608.51 311.99 606.68 320.08 605.16 325.51 603.2 331.2 600.86 337.16 598.67 343.08 596.29 349.28 593.82 355.75 591.76 362.21 589.81 368.95 588.04 375.96 586.91 382.96 586.11 390.25 585.67 397.82 586 405.39 586.69 413.07 587.71 420.84 589.39 428.62 591.26 436.49 593.25 444.45 595.65 452.41 597.99 460.46 600.15 468.56 602.47 476.68 604.43 484.85 605.95 493.04 607.38 501.24 608.24 509.43 608.47 517.58 608.44 525.69 607.7 533.73 606.26 541.62 604.48 549.42 601.97 557.01 598.78 564.33 595.24 571.47 591.04 578.25 586.26 584.6 581.17 590.66 575.56 596.19 569.49 601.11 563.2 605.65 556.52 609.51 549.52 612.63 542.39 615.3 535 617.19 527.42 618.27 519.76 618.93 511.96 618.81 504.07 617.94 496.16 616.76 488.18 614.93 480.18 612.52 472.18 610.04 464.18 607.16 456.2 603.97 448.23 601.02 440.29 597.99 432.41 594.98 424.54 592.51 416.71 590.26 408.95 588.32 401.2 587.14 393.68 586.37 386.41 586.02 379.13 586.42 372.07 587.14 365.25 588.14 358.4 589.71 351.76 591.38 345.34 593.06 338.88 595.06 332.61 596.87 326.54 598.4 320.4 599.98 314.44 601.12 308.65 601.74 299.91 602.1 283 599.15 274.8 595.73 269.25 592.89 263.81 589.37 258.49 585.22 253.05 580.76 247.71 575.73 242.5 570.18 237.18 564.38 231.98 558.14 226.93 551.52 221.8 544.73 216.84 537.63 212.08 530.29 207.27 522.84 202.7 515.21 198.41 507.46 194.14 499.64 190.18 491.74 186.59 483.8 183.08 475.84 179.98 467.85 177.33 459.89 174.84 451.93 172.84 443.99 171.37 436.11 170.12 428.23 169.42 420.41 169.32 412.67 169.46 404.93 170.18 397.45 171.47 390.23 172.97 383 174.99 376.01 177.51 369.27 180.18 362.51 183.3 355.97 186.82 349.67 190.42 343.31 194.38 337.17 198.66 331.21 202.95 325.19 207.51 319.34 212.3 313.64 217.05 307.85 222 302.18 227.11 296.62 232.14 290.93 237.31 285.33 242.61 279.8 247.79 274.11 253.1 268.46 258.52 262.87 263.8 257.1 269.21 251.36 274.73 245.66 280.13 239.8 285.66 234 291.31 228.27 296.86 222.42 302.57 216.69 308.42 211.11 314.19 205.5 320.13 200.1 326.24 194.99 332.3 189.94 338.55 185.26 345 181.01 351.4 176.96 358.02 173.42 364.86 170.46 371.67 167.81 378.71 165.82 385.98 164.53 393.24 163.62 400.75 163.44 408.49 164.04" stroke-dasharray="0 0" transform="rotate(24.24, 400, 400)" opacity="0.28"></path><path d="M412.76 174.65C420.2 175.59 427.68 177.2 435.19 179.43 442.71 181.92 450.26 184.96 457.81 188.46 465.37 192.11 472.93 196.15 480.46 200.51 487.97 204.88 495.44 209.51 502.81 214.32 510.15 219.04 517.37 223.89 524.41 228.84 531.38 233.62 538.13 238.47 544.6 243.36 550.94 248.05 556.95 252.78 562.57 257.53 567.98 262.08 572.94 266.68 577.4 271.33 583.41 278.08 592.04 291.79 594.55 298.84 595.99 305.89 595.48 320.75 593.73 328.64 592.34 333.91 590.57 339.43 588.48 345.17 586.55 350.89 584.47 356.86 582.31 363.08 580.53 369.28 578.84 375.74 577.31 382.47 576.34 389.18 575.65 396.17 575.26 403.42 575.55 410.67 576.14 418.02 577 425.46 578.45 432.9 580.06 440.43 581.77 448.02 583.86 455.62 585.9 463.29 587.79 470.98 589.86 478.68 591.62 486.41 593.01 494.12 594.36 501.82 595.21 509.48 595.52 517.06 595.64 524.59 595.15 532 594.03 539.23 592.62 546.35 590.58 553.23 587.91 559.82 584.94 566.21 581.37 572.23 577.24 577.8 572.84 583.11 567.94 587.89 562.58 592.09 557.01 595.95 551.06 599.17 544.76 601.69 538.33 603.84 531.62 605.29 524.68 606 517.67 606.38 510.48 606.06 503.16 605.08 495.8 603.87 488.35 602.1 480.85 599.82 473.33 597.52 465.78 594.87 458.23 591.96 450.67 589.29 443.13 586.54 435.61 583.82 428.09 581.58 420.6 579.52 413.16 577.72 405.72 576.59 398.49 575.81 391.49 575.38 384.46 575.62 377.65 576.14 371.04 576.9 364.41 578.18 357.96 579.55 351.71 580.94 345.42 582.65 339.3 584.21 333.36 585.54 324.43 587.49 307.2 589.13 298.87 588.53 293.27 587.72 287.78 586.29 282.4 584.24 276.93 581.92 271.55 578.99 266.3 575.48 260.93 571.69 255.67 567.36 250.54 562.54 245.31 557.49 240.22 551.99 235.28 546.12 230.27 540.07 225.43 533.7 220.8 527.07 216.15 520.32 211.73 513.36 207.58 506.23 203.47 499.05 199.66 491.74 196.21 484.34 192.85 476.93 189.89 469.45 187.36 461.96 184.98 454.46 183.08 446.96 181.68 439.48 180.48 432 179.82 424.55 179.73 417.15 179.86 409.75 180.55 402.57 181.78 395.62 183.21 388.65 185.14 381.9 187.54 375.36 190.09 368.8 193.08 362.43 196.45 356.26 199.92 350.04 203.73 344 207.85 338.12 211.99 332.17 216.41 326.36 221.06 320.69 225.68 314.92 230.5 309.25 235.49 303.68 240.41 297.99 245.49 292.37 250.69 286.81 255.8 281.11 261.03 275.46 266.37 269.86 271.6 264.1 276.94 258.4 282.4 252.74 287.74 246.96 293.2 241.25 298.78 235.64 304.26 229.94 309.88 224.37 315.63 218.98 321.31 213.58 327.14 208.42 333.12 203.54 339.04 198.76 345.14 194.33 351.42 190.33 357.65 186.53 364.08 183.23 370.7 180.48 377.29 178.02 384.09 176.18 391.1 175.01 398.1 174.19 405.32 174.06 412.75 174.65" stroke-dasharray="0 0" transform="rotate(28.28, 400, 400)" opacity="0.32"></path><path d="M416.43 185.25C423.54 186.16 430.66 187.69 437.79 189.8 444.92 192.16 452.06 195.03 459.17 198.35 466.28 201.81 473.36 205.66 480.38 209.82 487.38 214.02 494.3 218.46 501.09 223.11 507.85 227.7 514.44 232.43 520.85 237.28 527.17 241.99 533.25 246.79 539.04 251.64 544.69 256.32 550.01 261.05 554.94 265.81 559.69 270.4 564 275.04 567.82 279.72 572.96 286.54 580.16 300.33 582.15 307.39 583.24 314.41 582.5 329.09 580.87 336.82 578.84 344.65 573.64 361.32 570.88 370.19 569.37 376.15 567.92 382.36 566.6 388.8 565.79 395.24 565.2 401.92 564.85 408.85 565.1 415.77 565.6 422.78 566.32 429.86 567.56 436.94 568.92 444.09 570.37 451.28 572.17 458.48 573.93 465.71 575.56 472.95 577.37 480.18 578.92 487.41 580.16 494.59 581.4 501.75 582.21 508.84 582.56 515.81 582.77 522.72 582.45 529.47 581.58 536.02 580.49 542.44 578.83 548.61 576.6 554.46 574.13 560.12 571.11 565.4 567.57 570.24 561.67 576.88 547.33 587.02 539.08 590.36 533.34 592.06 527.29 593.12 521.01 593.54 514.64 593.69 508.07 593.23 501.34 592.19 494.57 590.99 487.67 589.3 480.68 587.17 473.68 585.06 466.61 582.65 459.5 580.02 452.39 577.61 445.26 575.14 438.13 572.68 431 570.65 423.87 568.78 416.76 567.11 409.65 566.04 402.73 565.25 395.99 564.76 389.24 564.86 382.67 565.2 376.28 565.73 369.87 566.74 363.62 567.84 357.54 568.95 351.43 570.38 345.46 571.68 339.65 572.81 330.91 574.52 314.01 576.1 305.8 575.71 297.58 574.57 281.55 569.25 273.73 565.08 268.47 561.89 263.32 558.2 258.29 554.03 253.19 549.67 248.22 544.88 243.41 539.7 238.55 534.37 233.86 528.71 229.38 522.76 224.9 516.71 220.64 510.41 216.66 503.93 212.72 497.38 209.08 490.67 205.79 483.84 202.59 476.99 199.77 470.05 197.36 463.05 195.11 456.04 193.3 449 191.98 441.94 190.85 434.88 190.23 427.82 190.14 420.77 190.26 413.72 190.92 406.85 192.08 400.17 193.43 393.48 195.27 386.96 197.55 380.63 199.98 374.27 202.82 368.07 206.03 362.03 209.34 355.95 212.99 350.02 216.94 344.22 220.92 338.35 225.17 332.6 229.66 326.96 234.13 321.24 238.8 315.59 243.65 310.03 248.45 304.36 253.4 298.76 258.48 293.21 263.49 287.54 268.62 281.92 273.86 276.36 279.01 270.67 284.27 265.04 289.63 259.48 294.9 253.82 300.28 248.24 305.77 242.79 311.17 237.27 316.7 231.91 322.34 226.74 327.92 221.59 333.63 216.68 339.47 212.07 345.27 207.55 351.21 203.4 357.31 199.66 363.37 196.11 369.6 193.04 376 190.51 382.38 188.24 388.94 186.56 395.67 185.5 402.4 184.76 409.32 184.67 416.42 185.25" stroke-dasharray="0 0" transform="rotate(32.32, 400, 400)" opacity="0.35"></path><path d="M419.34 195.86C426.09 196.73 432.84 198.18 439.57 200.17 446.29 202.39 452.99 205.09 459.64 208.22 466.28 211.49 472.86 215.13 479.35 219.09 485.82 223.09 492.18 227.34 498.39 231.8 504.55 236.23 510.53 240.82 516.3 245.52 521.98 250.14 527.42 254.84 532.55 259.62 537.56 264.26 542.24 268.95 546.53 273.7 552.52 280.61 562.02 294.47 565.41 301.45 568 308.31 570.4 322.36 570.28 329.61 569.58 336.88 566.33 352.12 564.07 360.14 562.65 365.51 561.12 371.08 559.53 376.84 558.26 382.59 557.04 388.54 555.92 394.71 555.25 400.86 554.75 407.24 554.45 413.83 554.66 420.42 555.07 427.07 555.66 433.76 556.7 440.46 557.85 447.2 559.05 453.96 560.58 460.71 562.06 467.48 563.44 474.22 565 480.95 566.34 487.65 567.41 494.27 568.51 500.85 569.26 507.33 569.6 513.67 569.76 522.98 567.45 540.35 564.93 548.21 561.61 555.46 552.26 567.57 546.34 572.24 539.77 576 524.7 580.35 516.35 580.91 510.61 580.89 504.66 580.34 498.52 579.28 492.34 578.12 486 576.54 479.55 574.58 473.08 572.67 466.51 570.49 459.87 568.13 453.23 565.98 446.54 563.77 439.81 561.56 433.09 559.75 426.34 558.05 419.59 556.5 412.83 555.49 406.22 554.7 399.77 554.16 393.31 554.14 386.99 554.31 380.83 554.64 374.65 555.4 368.62 556.24 362.72 557.09 353.89 558.77 336.8 561.64 328.52 562.52 320.26 563.06 304.17 561.92 296.32 560.12 288.46 557.59 273.16 549.85 265.75 544.71 260.8 540.97 255.98 536.81 251.33 532.29 246.64 527.63 242.13 522.63 237.82 517.34 233.52 511.95 229.46 506.31 225.65 500.45 221.9 494.53 218.44 488.43 215.32 482.18 212.29 475.9 209.62 469.5 207.35 463.01 205.22 456.5 203.52 449.93 202.28 443.31 201.22 436.69 200.63 430.02 200.55 423.34 200.66 416.66 201.28 410.12 202.38 403.72 203.65 397.32 205.38 391.05 207.53 384.92 209.83 378.78 212.52 372.76 215.56 366.87 218.71 360.95 222.18 355.13 225.94 349.43 229.75 343.67 233.82 338 238.11 332.42 242.42 326.76 246.92 321.18 251.6 315.66 256.24 310.06 261.05 304.5 265.98 299.01 270.86 293.42 275.87 287.88 280.98 282.4 286.02 276.83 291.17 271.32 296.42 265.89 301.6 260.4 306.87 255.01 312.25 249.75 317.55 244.46 322.97 239.34 328.49 234.42 333.95 229.54 339.53 224.9 345.22 220.57 350.87 216.34 356.65 212.47 362.56 208.99 368.44 205.71 374.47 202.88 380.63 200.55 386.78 198.48 393.08 196.95 399.53 196 405.98 195.34 412.58 195.29 419.33 195.86" stroke-dasharray="0 0" transform="rotate(36.36, 400, 400)" opacity="0.39"></path><path d="M421.35 206.47C427.74 207.29 434.09 208.66 440.39 210.53 446.69 212.61 452.94 215.14 459.11 218.08 471.42 224.34 483.35 231.9 494.65 240.4 505.76 248.84 516.03 257.9 525.19 267.31 533.9 276.31 541.24 285.57 546.95 295.01 552.03 303.96 555.38 313.18 556.9 322.67 557.94 331.79 557.4 341.36 555.46 351.4 553.71 361.25 551.19 371.72 548.26 382.82 547.22 388.35 546.21 394.06 545.26 399.94 544.72 405.81 544.31 411.87 544.04 418.11 544.22 424.35 544.55 430.63 545.02 436.92 545.89 443.22 546.83 449.53 547.81 455.82 550.63 468.4 553.08 480.87 554.79 492.99 556.72 504.93 557.28 516.3 556.28 526.78 554.81 536.8 551.54 545.6 546.54 552.85 540.91 559.32 533.65 563.99 525.02 566.63 515.94 568.46 505.73 568.35 494.67 566.4 483.42 564.17 471.53 560.69 459.24 556.31 453.08 554.41 446.84 552.45 440.54 550.47 434.24 548.85 427.89 547.31 421.5 545.89 415.11 544.94 408.84 544.16 402.69 543.57 396.53 543.44 390.5 543.47 384.58 543.62 372.71 545.07 361.27 546.56 350.3 547.76 339.18 549.55 328.42 550.33 318.08 549.83 307.52 549.1 297.3 546.7 287.51 542.63 277.52 538 267.98 531.7 259.05 523.94 250.07 515.72 241.83 506.24 234.57 495.8 227.54 485.11 221.71 473.68 217.32 461.73 215.33 455.74 213.74 449.65 212.57 443.47 211.58 437.3 211.03 431.05 210.96 424.75 211.06 418.45 211.64 412.24 212.67 406.14 213.86 400.04 215.49 394.04 217.5 388.14 221.94 376.3 227.81 364.81 234.86 353.69 242.13 342.4 250.37 331.35 259.34 320.56 268.25 309.51 277.77 298.62 287.73 288 297.48 277.14 307.66 266.58 318.18 256.55 328.48 246.51 339.19 237.24 350.28 229.06 361.21 221.34 372.62 215.07 384.47 210.61 390.37 208.72 396.4 207.34 402.55 206.5 408.69 205.93 414.96 205.91 421.34 206.47" stroke-dasharray="0 0" transform="rotate(40.400000000000006, 400, 400)" opacity="0.43"></path><path d="M422.37 217.08C434.37 218.87 446.14 222.59 457.52 227.92 468.85 233.77 479.71 240.88 489.88 248.9 499.86 256.96 508.98 265.64 517 274.73 524.63 283.52 530.96 292.6 535.81 301.88 540.15 310.76 542.96 319.89 544.17 329.26 545.06 338.31 544.6 347.73 542.95 357.53 541.55 367.16 539.5 377.3 537.06 387.95 535.68 398.54 534.48 409.73 533.63 421.49 534.33 433.25 535.39 445.03 536.65 456.68 538.98 468.3 540.96 479.69 542.31 490.63 543.94 501.39 544.4 511.5 543.54 520.68 542.36 529.44 539.62 537 535.33 543.1 530.56 548.54 524.29 552.34 516.73 554.35 508.79 555.73 499.73 555.43 489.79 553.54 479.67 551.52 468.84 548.42 457.53 544.54 446.17 541.45 434.42 538.27 422.42 535.29 410.42 533.9 398.73 533.05 387.45 532.68 376.13 533.68 365.14 534.7 354.54 535.48 343.82 536.87 333.42 537.42 323.38 536.89 313.18 536.29 303.31 534.26 293.85 530.77 284.26 526.89 275.12 521.5 266.58 514.75 258.06 507.63 250.27 499.3 243.42 489.98 236.83 480.46 231.37 470.12 227.28 459.19 223.71 448.2 221.67 436.72 221.36 424.91 221.74 413.09 223.83 401.5 227.46 390.22 231.6 378.9 237.1 367.81 243.72 357 250.58 346.07 258.38 335.3 266.9 324.78 275.42 314.05 284.55 303.49 294.12 293.23 303.54 282.81 313.38 272.74 323.55 263.23 333.55 253.8 343.92 245.14 354.6 237.56 365.17 230.45 376.13 224.73 387.43 220.69 398.69 217.51 410.36 216.24 422.36 217.07" stroke-dasharray="0 0" transform="rotate(44.44, 400, 400)" opacity="0.47"></path><path d="M422.36 227.68C433.56 229.37 444.43 232.82 454.84 237.75 465.21 243.19 475.03 249.82 484.12 257.34 493.04 264.95 501.09 273.21 508.07 281.9 514.74 290.39 520.2 299.21 524.32 308.24 528.06 316.96 530.45 325.93 531.46 335.1 532.28 344.01 531.94 353.23 530.59 362.75 529.55 372.12 527.92 381.89 525.95 392.06 524.91 402.18 523.96 412.78 523.22 423.79 523.82 434.8 524.63 445.72 525.56 456.4 527.44 467.03 528.99 477.35 529.98 487.13 531.3 496.74 531.63 505.64 530.82 513.6 529.83 521.2 527.49 527.65 523.79 532.73 519.73 537.28 514.33 540.36 507.72 541.86 500.79 542.91 492.8 542.5 483.92 540.73 474.87 538.96 465.09 536.25 454.74 532.85 444.36 530.18 433.49 527.38 422.3 524.68 411.1 523.35 400.1 522.4 389.4 521.81 378.67 522.41 368.19 523.01 358.02 523.38 347.78 524.37 337.79 524.65 328.13 524.04 318.37 523.47 308.9 521.69 299.85 518.65 290.72 515.35 282.04 510.71 273.96 504.84 265.93 498.68 258.62 491.37 252.22 483.1 246.08 474.64 241.01 465.36 237.23 455.41 233.93 445.4 232.05 434.83 231.77 423.82 232.11 412.81 234.05 401.89 237.41 391.16 241.24 380.41 246.35 369.8 252.52 359.39 258.94 348.88 266.26 338.51 274.3 328.34 282.37 318.05 291.04 307.93 300.15 298.12 309.18 288.24 318.62 278.73 328.36 269.82 337.99 261.04 347.95 253.04 358.17 246.08 368.31 239.59 378.77 234.41 389.48 230.79 400.17 227.94 411.16 226.85 422.36 227.68" stroke-dasharray="0 0" transform="rotate(48.48, 400, 400)" opacity="0.51"></path><path d="M421.3 238.29C431.68 239.86 441.65 243.04 451.11 247.59 460.53 252.59 469.35 258.72 477.42 265.72 485.36 272.84 492.44 280.62 498.51 288.85 504.33 296.96 509.05 305.43 512.57 314.12 515.83 322.59 517.9 331.31 518.8 340.2 519.6 348.89 519.43 357.84 518.4 367 517.68 376.06 516.46 385.43 514.91 395.08 514.17 404.69 513.44 414.65 512.81 424.89 513.31 435.13 513.92 445.17 514.55 454.88 516.02 464.54 517.16 473.8 517.82 482.46 518.82 490.97 518.97 498.75 518.17 505.59 516.26 514.86 506.19 526.85 498.08 529.22 492.06 530.03 485.03 529.6 477.13 528.01 469.09 526.48 460.3 524.16 450.91 521.22 441.47 518.95 431.51 516.51 421.14 514.07 410.77 512.81 400.5 511.79 390.43 511 380.34 511.26 370.43 511.47 360.77 511.48 351.06 512.07 341.56 512.07 332.36 511.33 323.1 510.71 314.12 509.07 305.54 506.36 296.93 503.5 288.77 499.47 281.19 494.34 273.7 488.99 266.9 482.59 260.97 475.25 255.3 467.78 250.64 459.47 247.17 450.46 244.14 441.4 242.43 431.72 242.18 421.53 242.49 411.34 244.26 401.14 247.35 391.03 250.86 380.9 255.57 370.83 261.27 360.91 267.22 350.93 274.04 341.04 281.54 331.35 289.12 321.58 297.28 312 305.88 302.75 314.44 293.49 323.4 284.63 332.65 276.36 341.82 268.28 351.3 260.96 360.99 254.65 370.63 248.78 380.53 244.13 390.6 240.92 400.66 238.4 410.93 237.47 421.3 238.29" stroke-dasharray="0 0" transform="rotate(52.52, 400, 400)" opacity="0.54"></path><path d="M419.26 248.9C428.8 250.35 437.88 253.26 446.41 257.41 454.91 261.98 462.79 267.6 469.93 274.05 476.96 280.64 483.17 287.89 488.44 295.6 493.53 303.25 497.63 311.28 500.68 319.55 503.55 327.67 505.41 336.03 506.26 344.55 507.1 352.93 507.11 361.52 506.39 370.28 505.98 378.95 505.12 387.85 503.94 396.94 503.46 406 502.93 415.29 502.4 424.75 502.81 434.2 503.24 443.35 503.62 452.1 504.71 460.82 505.5 469.05 505.85 476.66 506.51 487.51 503.87 504.64 500.1 510.43 495.05 514.63 479.63 516.96 469.55 515.37 462.44 514.11 454.59 512.16 446.12 509.66 437.6 507.75 428.53 505.64 419.01 503.47 409.48 502.27 399.97 501.21 390.58 500.27 381.19 500.23 371.9 500.1 362.81 499.78 353.71 500 344.77 499.72 336.1 498.82 327.41 498.1 318.99 496.52 310.95 494.04 302.93 491.49 295.33 487.94 288.31 483.42 281.39 478.75 275.13 473.13 269.7 466.63 264.51 460.02 260.26 452.61 257.11 444.49 254.36 436.33 252.81 427.53 252.59 418.17 252.87 408.81 254.48 399.35 257.28 389.91 260.48 380.47 264.77 371.02 269.99 361.68 275.46 352.31 281.74 343.01 288.67 333.89 295.7 324.75 303.3 315.8 311.32 307.19 319.35 298.62 327.76 290.47 336.44 282.91 345.09 275.55 354.01 268.93 363.11 263.26 372.18 258.02 381.45 253.89 390.84 251.07 400.22 248.87 409.73 248.1 419.26 248.9" stroke-dasharray="0 0" transform="rotate(56.56, 400, 400)" opacity="0.58"></path><path d="M416.33 259.5C425.01 260.84 433.21 263.48 440.86 267.23 448.47 271.37 455.47 276.47 461.76 282.34 467.96 288.38 473.41 295.05 478 302.18 482.47 309.31 486.06 316.82 488.74 324.58 491.31 332.26 493.02 340.17 493.88 348.23 494.78 356.2 494.98 364.35 494.55 372.61 494.43 380.82 493.9 389.19 493.05 397.66 492.8 406.12 492.43 414.71 491.99 423.36 492.33 432 492.59 440.28 492.76 448.11 493.52 455.9 493.99 463.17 494.05 469.81 494.32 479.25 491.57 493.86 488.15 498.69 483.7 502.22 470.2 504.16 461.32 502.85 455.05 501.85 448.07 500.26 440.48 498.17 432.86 496.59 424.66 494.79 415.99 492.86 407.32 491.74 398.6 490.65 389.94 489.61 381.28 489.31 372.69 488.9 364.24 488.29 355.8 488.17 347.49 487.62 339.44 486.55 331.38 485.69 323.58 484.12 316.15 481.79 308.76 479.46 301.78 476.27 295.34 472.24 289.03 468.13 283.33 463.16 278.41 457.4 273.72 451.56 269.88 444.96 267.05 437.68 264.58 430.37 263.19 422.42 263 413.89 263.24 405.36 264.69 396.68 267.22 387.97 270.09 379.27 273.97 370.52 278.69 361.84 283.65 353.16 289.37 344.54 295.7 336.09 302.15 327.65 309.14 319.42 316.54 311.52 323.97 303.71 331.77 296.31 339.82 289.49 347.86 282.88 356.16 276.97 364.6 271.95 373.03 267.31 381.62 263.69 390.27 261.26 398.93 259.35 407.65 258.73 416.33 259.5" stroke-dasharray="0 0" transform="rotate(60.599999999999994, 400, 400)" opacity="0.62"></path><path d="M412.64 270.11C420.47 271.33 427.81 273.7 434.61 277.06 441.38 280.76 447.56 285.34 453.09 290.62 458.56 296.08 463.33 302.14 467.34 308.64 471.28 315.18 474.46 322.1 476.85 329.28 479.2 336.42 480.81 343.79 481.71 351.3 482.69 358.76 483.07 366.38 482.92 374.07 483.04 381.73 482.79 389.5 482.23 397.31 482.17 405.11 481.94 412.97 481.58 420.8 481.85 428.64 481.99 436.06 481.97 442.99 482.55 453.08 482.36 470.19 481.15 476.91 475.86 486.19 460.42 491.47 452.6 490.46 447.09 489.72 440.92 488.46 434.17 486.74 427.39 485.47 420.05 483.95 412.24 482.25 404.42 481.22 396.51 480.13 388.62 479.02 380.74 478.51 372.88 477.86 365.15 477.02 357.42 476.6 349.81 475.81 342.43 474.58 335.07 473.57 327.95 471.96 321.18 469.72 314.46 467.53 308.14 464.62 302.32 460.99 296.64 457.33 291.52 452.92 287.11 447.8 282.92 442.63 279.51 436.77 277 430.27 274.8 423.75 273.57 416.61 273.41 408.91 273.62 401.22 274.9 393.34 277.15 385.41 279.71 377.48 283.16 369.49 287.39 361.56 291.83 353.63 296.97 345.76 302.68 338.07 308.51 330.41 314.85 322.96 321.57 315.84 328.35 308.82 335.48 302.21 342.84 296.16 350.22 290.31 357.82 285.11 365.55 280.73 373.28 276.68 381.14 273.55 389.02 271.49 396.91 269.86 404.82 269.37 412.64 270.11" stroke-dasharray="0 0" transform="rotate(64.64, 400, 400)" opacity="0.66"></path><path d="M408.37 280.72C415.34 281.82 421.85 283.92 427.85 286.9 433.82 290.16 439.26 294.21 444.1 298.9 448.9 303.76 453.08 309.18 456.61 315.02 460.09 320.92 462.93 327.19 465.11 333.71 467.28 340.23 468.83 346.98 469.79 353.86 470.84 360.72 471.39 367.71 471.47 374.76 471.8 381.79 471.79 388.9 471.48 395.99 471.57 403.09 471.47 410.19 471.18 417.2 471.38 424.21 471.41 430.79 471.25 436.88 471.47 445.73 470.64 460.5 469.27 466.23 464.23 474.17 450.45 478.92 443.58 478.21 438.75 477.71 433.33 476.75 427.36 475.39 421.38 474.38 414.87 473.13 407.91 471.64 400.95 470.7 393.87 469.63 386.78 468.48 379.71 467.83 372.64 467 365.66 465.97 358.7 465.3 351.84 464.3 345.19 462.94 338.57 461.77 332.17 460.12 326.1 457.95 320.1 455.84 314.46 453.14 309.29 449.84 304.24 446.54 299.72 442.6 295.84 438.04 292.15 433.46 289.15 428.27 286.95 422.5 285.02 416.71 283.95 410.36 283.82 403.49 284 396.62 285.12 389.57 287.1 382.45 289.33 375.33 292.37 368.16 296.1 361.02 300.02 353.91 304.57 346.86 309.64 339.98 314.83 333.15 320.49 326.53 326.5 320.23 332.58 314.04 338.99 308.24 345.61 302.95 352.27 297.86 359.13 293.37 366.09 289.61 373.07 286.13 380.15 283.47 387.22 281.75 394.31 280.39 401.39 280.01 408.37 280.72" stroke-dasharray="0 0" transform="rotate(68.68, 400, 400)" opacity="0.70"></path><path d="M403.7 291.32C415.96 293.58 426.5 299.17 434.98 307.2 443.35 315.82 449.62 326.37 453.61 337.96 457.68 349.63 459.85 362.15 460.24 374.83 461.45 387.49 461.61 400.34 460.77 412.73 461.47 425.11 461.18 435.77 459.87 444.32 458.29 455.79 445.94 466.54 434.45 466.13 425.99 465.75 415.46 463.98 403.22 461.04 390.97 459.75 378.29 457.76 365.91 455.14 353.62 453.7 341.73 450.9 330.99 446.56 320.54 442.56 311.47 436.48 304.59 428.38 298.37 420.25 294.68 410.01 294.23 397.89 294.77 385.78 298.55 373.04 304.83 360.44 311.78 347.96 320.89 335.79 331.38 324.78 342.15 314.19 354.06 305.16 366.36 298.6 378.75 293 391.44 290.34 403.7 291.32" stroke-dasharray="0 0" transform="rotate(72.72, 400, 400)" opacity="0.73"></path><path d="M398.87 301.93C409.47 303.87 418.57 308.65 425.91 315.53 433.2 322.92 438.75 332.03 442.42 342.11 446.23 352.32 448.47 363.32 449.2 374.45 450.6 385.6 450.99 396.87 450.36 407.62 450.87 418.37 450.37 427.53 448.89 434.81 446.93 444.63 435.46 454.16 425.4 454.21 418.06 454.17 408.97 452.88 398.38 450.43 387.79 449.23 376.8 447.22 366.07 444.54 355.43 442.77 345.16 439.83 335.92 435.64 326.95 431.77 319.21 426.22 313.38 419.02 308.1 411.85 304.99 402.91 304.63 392.4 305.07 381.89 308.26 370.87 313.61 360.02 319.5 349.29 327.28 338.9 336.29 329.58 345.57 320.65 355.86 313.11 366.51 307.72 377.26 303.1 388.26 300.98 398.87 301.93" stroke-dasharray="0 0" transform="rotate(76.76, 400, 400)" opacity="0.77"></path><path d="M394.08 312.54C403.07 314.18 410.81 318.17 417.1 323.91 423.38 330.07 428.26 337.73 431.63 346.25 435.15 354.92 437.4 364.3 438.38 373.81 439.86 383.36 440.41 392.98 439.95 402.13 440.31 411.27 439.67 419.01 438.11 425.15 435.91 433.51 425.35 442.02 416.62 442.47 410.33 442.71 402.59 441.82 393.61 439.82 384.64 438.73 375.34 436.78 366.29 434.16 357.32 432.21 348.69 429.25 340.96 425.26 333.47 421.56 327.04 416.52 322.24 410.2 317.87 403.92 315.31 396.23 315.04 387.29 315.38 378.35 318.01 369.05 322.44 359.97 327.3 350.98 333.77 342.36 341.31 334.72 349.07 327.38 357.72 321.27 366.71 316.98 375.79 313.28 385.1 311.64 394.08 312.54" stroke-dasharray="0 0" transform="rotate(80.80000000000001, 400, 400)" opacity="0.81"></path><path d="M389.57 323.15C396.98 324.49 403.41 327.71 408.71 332.35 414.02 337.32 418.24 343.53 421.29 350.49 424.47 357.58 426.64 365.29 427.75 373.13 429.23 381.02 429.86 388.97 429.54 396.53 429.43 407.28 425.24 422.59 420.92 426.95 415.72 430.16 399.76 431.07 389.14 429.22 381.75 428.25 374.13 426.45 366.74 423.99 359.42 422.01 352.42 419.15 346.19 415.47 340.14 412.02 334.99 407.53 331.17 402.09 327.67 396.68 325.64 390.21 325.45 382.81 325.7 375.42 327.79 367.82 331.35 360.47 335.21 353.2 340.41 346.31 346.5 340.27 352.76 334.46 359.79 329.69 367.13 326.4 374.54 323.54 382.17 322.33 389.57 323.15" stroke-dasharray="0 0" transform="rotate(84.84, 400, 400)" opacity="0.85"></path><path d="M385.55 333.75C397.28 336.18 406.22 344.22 411.45 354.9 417.08 366.04 419.9 379.11 419.13 391.11 419.77 403.09 416.85 411.57 411.15 415.76 405.86 420.29 396.9 421.38 385.18 418.61 373.45 417.39 361.37 412.96 351.68 406.32 342.49 400.3 336.38 390.97 335.86 379.2 336.48 367.43 342.68 355.53 351.94 346.3 361.69 337.7 373.81 332.69 385.55 333.75" stroke-dasharray="0 0" transform="rotate(88.88, 400, 400)" opacity="0.89"></path><path d="M382.19 344.36C390.91 346.09 397.83 351.86 402.13 359.6 406.7 367.64 409.16 377.2 408.72 386.13 407.79 398.3 394.08 409.32 381.9 408 373.18 406.96 364.4 403.23 357.5 397.81 350.89 392.77 346.56 385.43 346.27 376.63 346.64 367.84 351.04 359.29 357.7 352.87 364.66 346.81 373.46 343.41 382.19 344.36" stroke-dasharray="0 0" transform="rotate(92.92, 400, 400)" opacity="0.92"></path><path d="M379.66 354.97C391.22 357.48 399.04 370.02 398.31 381.84 398.92 393.66 391.01 400.08 379.46 397.4 367.89 396.22 357.23 386.94 356.68 375.24 357.34 363.53 368.09 353.87 379.66 354.97" stroke-dasharray="0 0" transform="rotate(96.96, 400, 400)" opacity="0.96"></path></g></svg>